<svg width="24" height="24" viewBox="0 0 24 24" fill="none" xmlns="http://www.w3.org/2000/svg">
<g clip-path="url(#clip0_46_1204)">
<path d="M12 4.5C13.0355 4.5 13.875 3.66053 13.875 2.625C13.875 1.58947 13.0355 0.75 12 0.75C10.9645 0.75 10.125 1.58947 10.125 2.625C10.125 3.66053 10.9645 4.5 12 4.5Z" stroke="#591567" stroke-width="1.5" stroke-linejoin="round"/>
<path d="M9.57324 12.8644C9.70918 12.0178 9.77012 11.1994 9.54981 10.6336C9.36231 10.147 8.95449 9.87468 8.46231 9.68906L4.12496 8.28562C3.56246 8.09812 3.03699 7.78406 2.99996 7.16343C2.95309 6.36656 3.65621 5.85093 4.35934 6.03843C4.35934 6.03843 8.48434 7.49812 12 7.49812C15.5156 7.49812 19.5937 6.045 19.5937 6.045C20.4375 5.81062 21 6.46687 21 7.16015C21 7.82625 20.4843 8.06062 19.875 8.28234L15.75 9.77812C15.375 9.91875 14.7656 10.2 14.5312 10.6303C14.25 11.1342 14.2968 12.0145 14.4328 12.8611L14.7093 14.25L16.4629 21.9328C16.5942 22.5492 16.1676 23.1253 15.5536 23.2331C14.9395 23.3409 14.4375 22.9219 14.2556 22.3256L12.495 16.8914C12.4103 16.6308 12.3353 16.3672 12.27 16.1006L12 15L11.7515 16.0148C11.6728 16.3383 11.5821 16.6583 11.4796 16.9748L9.74996 22.3209C9.56246 22.9233 9.07027 23.3405 8.45621 23.2331C7.84215 23.1258 7.40621 22.5023 7.54403 21.9328L9.29668 14.2533L9.57324 12.8644Z" stroke="#591567" stroke-width="1.5" stroke-linejoin="round"/>
</g>
<defs>
<clipPath id="clip0_46_1204">
<rect width="24" height="24" fill="white"/>
</clipPath>
</defs>
</svg>
