<svg width="39" height="42" viewBox="0 0 39 42" fill="none" xmlns="http://www.w3.org/2000/svg">
<path d="M38.3403 20.6532C38.3404 21.8029 37.9813 22.9242 37.3129 23.8621C36.6444 24.8 35.6995 25.5082 34.6088 25.8887C34.315 25.9508 34.0235 26.0275 33.7354 26.1144C31.7394 26.7333 29.9808 27.9435 28.6948 29.5832C27.4088 31.223 26.6567 33.2141 26.539 35.2904C26.5161 35.7113 26.5187 36.1333 26.5469 36.5539C26.4387 37.5443 26.0642 38.4875 25.4629 39.2844C24.8616 40.0812 24.0556 40.7022 23.1296 41.0822C22.2036 41.4621 21.1919 41.587 20.2006 41.4437C19.2093 41.3004 18.2751 40.8942 17.4962 40.2678C16.7173 39.6414 16.1224 38.8178 15.774 37.8837C15.4256 36.9496 15.3366 35.9394 15.5164 34.9593C15.6961 33.9791 16.1379 33.0652 16.7954 32.3136C17.4529 31.5619 18.3018 31.0003 19.2529 30.6877C19.4691 30.6388 19.6846 30.582 19.8994 30.5174C21.9578 29.902 23.7699 28.6592 25.08 26.9644C26.3902 25.2696 27.1322 23.2085 27.2013 21.0717C27.2097 20.8123 27.2097 20.5528 27.2013 20.2933C27.1075 18.1928 26.364 16.1724 25.0722 14.508C23.7805 12.8436 22.0037 11.6165 19.9844 10.9943C19.7292 10.9142 19.4706 10.8466 19.2109 10.789C18.2615 10.4623 17.4184 9.88664 16.7707 9.12274C16.1231 8.35884 15.695 7.43511 15.5315 6.44917C15.3681 5.46323 15.4755 4.4517 15.8424 3.52145C16.2092 2.5912 16.8219 1.77679 17.6157 1.16428C18.4094 0.551767 19.3548 0.163899 20.3519 0.041662C21.349 -0.0805752 22.3608 0.0673577 23.2803 0.469829C24.1999 0.8723 24.993 1.51436 25.576 2.32817C26.159 3.14198 26.5101 4.0973 26.5923 5.0932C26.5821 5.37297 26.5843 5.65726 26.5923 5.93364C26.6953 8.04078 27.4519 10.0645 28.7579 11.7267C30.064 13.389 31.8555 14.6082 33.8863 15.2168C34.0897 15.2778 34.2938 15.3315 34.4988 15.3782C35.6163 15.7426 36.5894 16.4489 37.2793 17.3963C37.9692 18.3436 38.3405 19.4835 38.3403 20.6532Z" fill="white"/>
<path d="M0.011253 34.785C0.0858372 33.6393 0.515715 32.5448 1.24168 31.6522C1.96765 30.7596 2.95399 30.1129 4.06487 29.801C4.36733 29.7582 4.66524 29.701 4.95862 29.6295C7.20268 29.0891 9.19804 27.812 10.6224 26.0046C12.0467 24.1971 12.8169 21.9648 12.8084 19.6684C12.9803 18.6872 13.4145 17.7702 14.0656 17.0136C14.7167 16.257 15.5606 15.6887 16.5087 15.3684C17.4567 15.048 18.474 14.9875 19.4538 15.1931C20.4335 15.3987 21.3395 15.8628 22.0766 16.5368C22.8138 17.2108 23.3549 18.0697 23.6432 19.0235C23.9315 19.9772 23.9563 20.9906 23.715 21.9571C23.4737 22.9237 22.9753 23.8078 22.2719 24.5167C21.5686 25.2255 20.6864 25.733 19.7179 25.9858C19.4911 26.0219 19.2661 26.0659 19.0431 26.1177C16.9494 26.6025 15.0616 27.729 13.6461 29.3381C12.2305 30.9472 11.3587 32.9578 11.1536 35.0862C11.1287 35.3366 11.115 35.5882 11.1094 35.8398C11.008 36.6274 10.7378 37.3841 10.3172 38.059C9.89663 38.7339 9.33534 39.3111 8.67126 39.7518C8.00718 40.1925 7.25577 40.4863 6.46777 40.6134C5.67976 40.7405 4.87351 40.698 4.10344 40.4887C3.90495 40.4143 3.70533 40.3466 3.50231 40.2868C2.41215 39.8521 1.48776 39.0862 0.860899 38.0983C0.234039 37.1104 -0.0633031 35.9508 0.011253 34.785Z" fill="white"/>
</svg>
