<svg width="24" height="25" viewBox="0 0 24 25" fill="none" xmlns="http://www.w3.org/2000/svg">
<g clip-path="url(#clip0_46_1212)">
<path d="M7.5 15.9484V2.27832L9 3.03777L10.5 2.27832L11.9972 3.03777L13.5145 2.27832L15 3.03777L16.4902 2.27832L17.9869 3.03777L19.5 2.27832L21.0005 3.03777L22.5 2.27832V12.9106" stroke="#591567" stroke-width="1.5189" stroke-linejoin="round"/>
<path d="M22.5 12.9106V18.2268C22.5 19.2339 22.1049 20.1997 21.4016 20.9118C20.6984 21.624 19.7446 22.024 18.75 22.024V22.024C17.7554 22.024 16.8016 21.624 16.0983 20.9118C15.3951 20.1997 15 19.2339 15 18.2268V15.9484H2.25C2.15126 15.9476 2.05334 15.9666 1.96195 16.0044C1.87056 16.0423 1.78754 16.0982 1.71772 16.1689C1.6479 16.2396 1.59269 16.3237 1.55531 16.4162C1.51792 16.5088 1.49912 16.6079 1.5 16.7079C1.5 19.7457 1.81594 22.024 5.25 22.024H18.75" stroke="#591567" stroke-width="1.5189" stroke-linejoin="round"/>
<path d="M13.5 10.6323H19.5M10.5 6.83508H19.5H10.5Z" stroke="#591567" stroke-width="1.5189" stroke-linecap="round" stroke-linejoin="round"/>
</g>
<defs>
<clipPath id="clip0_46_1212">
<rect width="24" height="24.3024" fill="white"/>
</clipPath>
</defs>
</svg>
