<svg width="82" height="29" viewBox="0 0 82 29" fill="none" xmlns="http://www.w3.org/2000/svg">
<path d="M26.6592 6.71984L23.5457 14.2627L24.8543 6.71984H21.4475L19.2815 22.7539H22.9591L30.1564 6.71984H26.6592ZM31.6225 15.983H34.5781L35.4355 13.1379H32.4798L33.5403 9.60909H36.5635L37.4434 6.71984H30.9908L26.1625 22.754H32.5024L33.6306 19.7104H30.4944L31.6225 15.983ZM12.3593 26.0379C10.5876 26.0379 8.91964 25.5992 7.46037 24.8255L6.59064 26.583C8.31276 27.4834 10.2758 27.9931 12.3593 27.9931C16.2974 27.9931 19.8044 26.1712 22.0676 23.3341H19.379C17.5307 25.0125 15.0665 26.0379 12.3593 26.0379ZM14.544 19.96V21.6166L18.7137 18.4873L14.6785 14.7792V16.3834H10.3743L14.6785 6.39054V13.7536L18.1638 16.9763L18.2504 0H14.4365L0.501892 28.1287L5.12892 28.2174L8.86787 19.96H14.544ZM3.34255 20.8646C2.47398 19.364 1.9775 17.6259 1.9775 15.7732C1.9775 10.6127 5.82941 6.34214 10.8455 5.61756L11.8627 3.56416C5.26723 3.82203 0 9.18911 0 15.7732C0 18.4157 0.84848 20.8624 2.29061 22.8614L3.34255 20.8646ZM18.157 22.754V19.7249L14.5398 22.754H18.157ZM69.5932 15.1449C70.428 15.1449 70.9018 14.6597 71.0372 14.1966L72.6842 8.74895C73 7.69031 72.5262 6.71989 71.0597 6.71989H64.8552L60.0269 22.754H63.4338L65.4869 15.9169H66.615C67.0211 15.9169 67.0662 16.2036 66.976 16.4683L65.0808 22.754H68.4876L70.2474 16.9094C70.6085 15.7625 70.1122 15.2332 69.5932 15.1449ZM69.0518 9.962L68.1493 12.9394C67.9914 13.4246 67.6981 13.557 67.3596 13.557H66.1864L67.4724 9.30031H68.5328C69.0518 9.30031 69.1871 9.5429 69.0518 9.962ZM43.3995 6.71984L41.5269 12.9173L41.4141 6.71984H38.5036L33.6753 22.7539H36.8792L38.842 16.3579L39.1353 22.7539H41.8653L46.6936 6.71984H43.3995ZM77.3993 9.60909H80.3774L81.2574 6.71984H76.0005C75.1882 6.71984 74.3761 6.94039 73.9925 8.06521L72.1199 14.2847C71.7814 15.4537 72.1199 16.2256 73.5413 16.2256H75.3462C75.5493 16.2256 75.5493 16.3138 75.5041 16.4462L74.7145 19.1589C74.5791 19.5559 74.4889 19.7103 73.8571 19.7103H71.0143L70.0893 22.7539H75.6621C76.3615 22.7539 77.106 22.4231 77.2865 21.7835L79.1591 15.5639C79.6329 13.998 78.8658 13.3364 77.6475 13.3364H75.82L76.7901 10.0722C76.9029 9.71936 77.1511 9.60909 77.3993 9.60909ZM50.3935 13.1379L49.5361 15.983H50.2355L48.9947 20.0853H47.844C47.3927 20.0853 47.1897 19.9088 47.3251 19.4457L50.1453 10.0943C50.2581 9.69727 50.4386 9.60904 50.7996 9.60904H54.1162L54.9962 6.7198H49.5587C48.4757 6.7198 47.7312 7.02857 47.3702 8.21953L43.8957 19.7764C43.264 21.8937 44.5499 22.7539 46.0842 22.7539H48.1824L47.8214 24.011L51.6118 22.1363L54.3192 13.1378H50.3935V13.1379ZM57.9741 15.983H60.9298L61.7871 13.1379H58.8315L59.8919 9.60909H62.9152L63.7951 6.71984H57.3424L52.5141 22.7539H58.854L59.9822 19.7103H56.846L57.9741 15.983Z" fill="black"/>
</svg>
