<svg width="66" height="31" viewBox="0 0 66 31" fill="none" xmlns="http://www.w3.org/2000/svg">
<path d="M6.99926 11.1795V2.43015C6.99926 2.10595 7.0316 1.91151 7.58278 1.91151H15.0034C16.2998 1.91151 17.0127 3.01348 17.5313 5.08728L17.9526 6.74024H19.2162C19.4428 2.04165 19.6371 0 19.6371 0C19.6371 0 16.4615 0.35635 14.582 0.35635H5.08775L-0.00069046 0.19425V1.55535L1.71715 1.87936C2.91615 2.10634 3.20723 2.36527 3.30523 3.46744C3.30523 3.46744 3.40264 6.7079 3.40264 12.0551C3.40264 17.4015 3.30523 20.61 3.30523 20.61C3.30523 21.582 2.91615 21.9384 1.71715 22.1659L-0.00069046 22.4901V23.8505L5.08775 23.6887H13.578C15.4899 23.6887 19.9293 23.8505 19.9293 23.8505C20.0262 22.6836 20.6748 17.4015 20.772 16.8189H19.573L18.3091 19.703C17.3044 21.9709 15.8464 22.1332 14.2258 22.1332H9.39707C7.77664 22.1332 6.99887 21.485 6.99887 20.0917V12.7031C6.99887 12.7031 10.531 12.7031 11.7621 12.8005C12.6697 12.8656 13.2203 13.1247 13.5123 14.3884L13.9014 16.0735H15.2941L15.1972 11.8279L15.3915 7.55074H13.9984L13.5451 9.4301C13.253 10.6614 13.0589 10.8888 11.7949 11.018C10.3693 11.1805 6.99868 11.1479 6.99868 11.1479V11.1801H6.99926V11.1795ZM26.2156 3.33768C25.7619 5.3468 25.3081 6.90215 23.7202 7.93924C22.7482 8.58706 21.7758 8.81366 21.3875 8.84619V10.0775H24.2714V20.0259C24.2714 22.8132 26.1188 24.1745 28.5813 24.1745C30.4934 24.1745 32.4697 23.3643 33.1505 21.6789L32.4698 20.8039C32.1456 21.355 31.1092 22.165 29.8128 22.165C28.3872 22.165 27.6094 21.1926 27.6094 18.7302V9.94855L32.4058 10.3053L32.6648 8.10115L27.6096 8.29578V3.36983L26.2156 3.33768ZM36.456 18.6398L35.2247 18.6721C35.2894 19.3848 35.3221 20.2925 35.3221 21.135C35.3221 22.01 35.2898 22.8201 35.2247 23.2088C35.2247 23.2088 37.6876 24.1154 40.1828 24.1154C43.553 24.1154 46.2429 22.4951 46.2429 19.3194C46.2429 13.8759 38.0766 14.6862 38.0766 11.0238C38.0766 9.50095 39.4375 8.91742 40.9282 8.91742C42.0949 8.91742 43.0669 9.33865 43.2613 9.9549L44.0716 12.3852L45.2708 12.3206C45.3683 11.0241 45.4327 9.53348 45.6274 8.33467C44.5901 7.88091 42.4187 7.6212 41.0587 7.6212C37.8822 7.6212 35.3227 9.01484 35.3227 12.1259C35.3227 17.5374 43.2941 16.4356 43.2941 20.4221C43.2941 21.8473 42.4187 22.8521 40.4425 22.8521C38.6282 22.8521 37.7205 21.9126 37.3647 20.9723L36.456 18.6398ZM55.9875 22.3835C54.1114 27.624 51.8149 28.9816 49.7449 28.9816C48.8711 28.9816 48.451 28.5931 48.3211 27.9796L47.8359 25.4559L46.4771 25.5205C46.2184 27.0087 45.9597 28.659 45.6043 30.0172C46.413 30.6309 47.7709 30.9551 48.8388 30.9551C51.0712 30.9551 54.4672 30.6635 57.572 23.2889L62.7801 10.9976C63.201 9.99456 63.3621 9.89753 64.5913 9.412L65.2707 9.15384V8.02164L62.1976 8.18335L58.8984 8.02164V9.15384L59.7389 9.412C60.5797 9.67132 60.9685 9.99456 60.9685 10.5769C60.9685 10.8678 60.8711 11.1591 60.709 11.6115C60.2239 12.8415 57.2156 20.1514 56.4078 21.7045L57.2154 21.4128C55.7919 17.8872 53.6257 11.9996 53.3019 10.9978C53.2372 10.8035 53.2049 10.6418 53.2049 10.4793C53.2049 9.96203 53.5606 9.54138 54.3371 9.37985L55.4046 9.15403V8.02183L50.9726 8.18355L47.4471 8.02183V9.15403L48.0294 9.34789C48.838 9.60664 49.0322 9.83323 49.5174 10.9652C52.2013 17.1114 53.4636 20.4748 55.1772 24.8745L55.9875 22.3835Z" fill="#999999"/>
</svg>
