<svg width="33" height="32" viewBox="0 0 33 32" fill="none" xmlns="http://www.w3.org/2000/svg">
<path d="M0 3.64912C0 2.59139 0.366717 1.71877 1.10012 1.03127C1.83352 0.343747 2.78698 0 3.96043 0C5.11295 0 6.04541 0.338448 6.75788 1.01541C7.49128 1.7135 7.858 2.62312 7.858 3.74432C7.858 4.75973 7.50178 5.60588 6.78931 6.28284C6.05591 6.98093 5.09198 7.32998 3.89757 7.32998H3.86614C2.71362 7.32998 1.78116 6.98093 1.06869 6.28284C0.356219 5.58475 0 4.70683 0 3.64912ZM0.408616 31.4142V10.2175H7.38652V31.4142H0.408616ZM11.2527 31.4142H18.2306V19.5783C18.2306 18.8379 18.3144 18.2668 18.482 17.8648C18.7754 17.1456 19.2207 16.5374 19.8179 16.0403C20.4151 15.5431 21.1642 15.2946 22.0653 15.2946C24.4122 15.2946 25.5856 16.8917 25.5856 20.086V31.4142H32.5636V19.261C32.5636 16.1302 31.8301 13.7556 30.3633 12.1373C28.8965 10.519 26.9582 9.70984 24.5484 9.70984C21.8452 9.70984 19.7393 10.8839 18.2306 13.232V13.2955H18.1991L18.2306 13.232V10.2175H11.2527C11.2946 10.8945 11.3155 12.9993 11.3155 16.5321C11.3155 20.0649 11.2946 25.0256 11.2527 31.4142Z" fill="black"/>
</svg>
