<svg width="67" height="36" viewBox="0 0 67 36" fill="none" xmlns="http://www.w3.org/2000/svg">
<path fill-rule="evenodd" clip-rule="evenodd" d="M66.5354 17.5356C66.5354 27.2201 51.639 35.0712 33.2692 35.0712C14.8944 35.0712 0 27.2201 0 17.5356C0 7.85107 14.8944 0 33.2692 0C51.639 0 66.5354 7.85107 66.5354 17.5356Z" fill="#C1C9CF"/>
<path fill-rule="evenodd" clip-rule="evenodd" d="M65.1585 17.5216C65.1585 26.4157 50.8747 33.626 33.2567 33.626C15.6378 33.626 1.35437 26.4157 1.35437 17.5216C1.35437 8.62772 15.6378 1.41785 33.2567 1.41785C50.8747 1.41776 65.1585 8.62772 65.1585 17.5216ZM33.2567 2.6857C16.3287 2.6857 2.6049 9.32811 2.6049 17.5215C2.6049 25.715 16.3287 32.3574 33.2567 32.3574C50.1841 32.3574 63.9073 25.715 63.9073 17.5215C63.9073 9.32811 50.1841 2.6857 33.2567 2.6857Z" fill="#414B47"/>
<path fill-rule="evenodd" clip-rule="evenodd" d="M63.1141 17.5215C63.1141 25.2746 49.7464 31.5599 33.2568 31.5599C16.7666 31.5599 3.39896 25.2746 3.39896 17.5215C3.39896 9.76891 16.7666 3.48401 33.2568 3.48401C49.7465 3.48401 63.1141 9.76883 63.1141 17.5215ZM52.3921 10.9493H47.2713L46.6475 12.7418H49.9621L46.1814 14.0577L45.9314 14.7847L51.7492 12.8669L52.3921 10.9493ZM19.743 14.0954H17.657C17.657 14.0954 19.5903 8.91534 19.7453 8.52372C20.0211 7.82985 20.1857 7.87759 20.1857 7.87759H17.3047C17.6613 8.04915 17.3454 8.72538 17.3454 8.72538C17.3454 8.72538 15.0377 15.1855 14.877 15.5083C14.7163 15.8317 14.5959 15.8723 14.5959 15.8723H19.5853L20.2831 13.959C20.223 14.1412 19.743 14.0954 19.743 14.0954ZM28.4949 15.864H30.845C30.845 15.864 30.684 15.6243 30.7845 15.3621C30.9237 14.9979 32.1704 11.5869 32.1704 11.5869L32.7124 15.864H34.8412L37.6318 8.25584C37.6318 8.25584 37.7461 7.89899 37.9017 7.89899L35.6398 7.8923C35.6398 7.8923 35.7045 8.15492 35.624 8.35692C35.5441 8.55892 34.2582 12.011 34.2582 12.011L33.7562 7.89239H31.3268C31.3268 7.89239 31.4526 8.09405 31.3722 8.31603C31.3066 8.49613 28.7966 15.4223 28.7966 15.4223C28.7966 15.4223 28.636 15.864 28.4949 15.864ZM39.2393 7.89456C39.2393 7.89456 39.4401 8.21754 39.1784 8.96417C38.9173 9.71139 36.8691 15.2628 36.8691 15.2628C36.8691 15.2628 36.7079 15.785 36.4876 15.8864L39.7007 15.8827C39.7007 15.8827 43.596 16.0275 44.8013 11.9115C44.8013 11.9115 46.3274 7.85384 41.9094 7.89456H39.2393ZM39.5801 14.0445C39.5801 14.0445 39.5905 14.0413 39.9513 14.0413C40.4981 14.0413 41.5104 13.9202 42.1907 12.2549C43.3086 9.51783 41.7489 9.61039 41.7489 9.61039H41.1462L39.5801 14.0445ZM11.0049 22.3098H16.1255L16.7487 20.517H13.4346L17.215 19.2013L17.4655 18.4746L11.6476 20.3925L11.0049 22.3098ZM19.9787 25.6165C19.8977 25.6165 19.8977 25.356 19.8977 25.356L20.8395 22.8435C20.8395 22.8435 22.0128 25.1579 22.0934 25.3195C22.1738 25.4812 22.1332 25.6158 22.1332 25.6158H24.94C24.6724 25.6158 24.3962 25.1044 24.3962 25.1044L22.9989 22.5838C24.9533 22.5838 25.5785 20.6363 25.5785 20.6363C26.5424 17.5408 23.2984 17.6214 23.2984 17.6214H19.9787C20.2193 17.8907 20.0317 18.456 20.0317 18.456C20.0317 18.456 17.97 24.3815 17.8098 24.8394C17.6489 25.2969 17.3545 25.6165 17.3545 25.6165H19.9787ZM21.9681 19.4595L21.424 21.0673H21.9327C21.9327 21.0673 22.9238 21.155 23.2894 20.3629C23.2894 20.3629 23.7171 19.4554 22.5215 19.4554C22.2597 19.4554 21.9681 19.4595 21.9681 19.4595ZM49.0223 25.6459C48.8215 25.65 48.9613 25.156 48.9613 25.156L49.8016 22.8728C49.8016 22.8728 50.9344 25.1876 51.0139 25.3496C51.0945 25.5109 51.0546 25.6455 51.0546 25.6455H53.9612C53.6931 25.6455 53.3985 25.1341 53.3985 25.1341L52.0006 22.6127C53.956 22.6127 54.5442 20.7354 54.5442 20.7354C55.5709 17.4941 52.3011 17.6512 52.3011 17.6512H49.0077C49.2491 17.9204 49.0617 18.4857 49.0617 18.4857C49.0617 18.4857 46.914 24.4339 46.7528 24.891C46.5923 25.3496 46.284 25.6414 46.284 25.6414L49.0223 25.6459ZM50.9361 21.0963C50.9361 21.0963 51.9195 21.171 52.2205 20.3965C52.5758 19.484 51.6893 19.5082 51.6893 19.5082H50.9623L50.427 21.0963H50.9361ZM29.0497 25.8143C31.9471 25.8143 33.6714 22.9573 33.6714 20.9075C33.6714 18.7573 32.7922 17.4156 30.7845 17.4156C28.223 17.4156 26.552 19.3695 26.1208 21.7987C25.7245 24.0326 26.9793 25.8143 29.0497 25.8143ZM29.2321 23.925C29.9549 24.0591 30.7495 23.5363 31.1644 21.8657C31.7937 19.3376 30.6339 19.3167 30.4222 19.2907C29.781 19.212 28.9249 19.9544 28.5771 21.5025C28.4178 22.2095 28.2489 23.7418 29.2321 23.925ZM34.3591 17.6512C34.3591 17.6512 34.5584 17.7587 34.5584 18.2697V25.1875C34.5584 25.1875 34.5311 25.5663 34.3887 25.6455H36.5416C36.5416 25.6455 36.5416 25.4834 36.7552 25.2144C36.9696 24.9452 41.441 18.9165 41.441 18.9165C41.441 18.9165 42.4606 17.6512 42.7279 17.6512H39.6468C39.6468 17.6512 39.8882 17.8129 39.7007 18.1088C39.5133 18.4051 36.7744 22.5232 36.7744 22.5232L36.8088 18.3694C36.8088 18.3694 36.804 17.7033 37.0698 17.6474L34.3591 17.6512ZM47.3748 19.5372L48.0709 17.6493L42.8503 17.6499C42.8503 17.6499 43.0373 17.816 42.797 18.4887C42.5556 19.1622 40.4404 24.894 40.4404 24.894C40.4404 24.894 40.0656 25.6474 39.9591 25.6474H45.3403L45.9831 23.7366C45.9831 23.7366 45.9029 23.844 45.3942 23.844H43.1179L43.6004 22.5521H45.3668C45.3668 22.5521 45.7421 22.5253 45.8223 22.6331L46.5451 20.5908C46.5451 20.5908 46.4923 20.7756 46.0095 20.7756H44.2958L44.8053 19.3494H46.9736C46.9736 19.3495 47.2683 19.3086 47.3748 19.5372ZM20.1574 15.8712H22.733C22.733 15.8712 22.725 15.6724 22.7921 15.5432C22.9145 15.3099 23.2341 14.7472 23.2341 14.7472H25.8263L25.8313 15.4492C25.8313 15.4492 25.8446 15.6912 25.6538 15.8779H28.2244C28.2244 15.8779 28.0334 15.7701 27.9983 15.4523L27.6758 8.42732C27.6758 8.42732 27.6619 7.97834 27.8745 7.88377H25.3244C25.3244 7.88377 25.503 8.10567 25.1616 8.61034C24.8205 9.11509 20.4642 15.6084 20.4642 15.6084C20.4642 15.6084 20.3776 15.7754 20.1574 15.8712ZM25.7769 10.6027L24.3455 12.9438H25.7974L25.7769 10.6027Z" fill="#414B47"/>
</svg>
