<svg width="33" height="33" viewBox="0 0 33 33" fill="none" xmlns="http://www.w3.org/2000/svg">
<path fill-rule="evenodd" clip-rule="evenodd" d="M3.24969 0H29.2472C31.042 0 32.4969 1.45482 32.4969 3.24969V29.2472C32.4969 31.042 31.042 32.4969 29.2472 32.4969H3.24969C1.45482 32.4969 0 31.042 0 29.2472V3.24969C0 1.45482 1.45482 0 3.24969 0Z" fill="#010101"/>
<path fill-rule="evenodd" clip-rule="evenodd" d="M20.405 29.8969C21.3939 29.8969 22.1955 29.1017 22.1955 28.121C22.1955 27.1402 21.3939 26.345 20.405 26.345H20.1353C21.1241 26.345 21.9258 27.1402 21.9258 28.121C21.9258 29.1017 21.1241 29.8969 20.1353 29.8969H20.405Z" fill="#C1C9CF"/>
<path fill-rule="evenodd" clip-rule="evenodd" d="M20.1111 26.345H19.8413C18.8525 26.345 18.0508 27.1402 18.0508 28.121C18.0508 29.1017 18.8525 29.8969 19.8413 29.8969H20.1111C19.1221 29.8969 18.3205 29.1017 18.3205 28.121C18.3205 27.1402 19.1221 26.345 20.1111 26.345Z" fill="#C1C9CF"/>
<path d="M20.1237 28.9847C20.6046 28.9847 20.9944 28.5981 20.9944 28.1212C20.9944 27.6443 20.6046 27.2577 20.1237 27.2577C19.6427 27.2577 19.2529 27.6443 19.2529 28.1212C19.2529 28.5981 19.6427 28.9847 20.1237 28.9847Z" fill="#010101"/>
<path fill-rule="evenodd" clip-rule="evenodd" d="M6.49918 25.5425V26.4426H7.55363V29.8728H8.60848V26.467H9.46679L9.76108 25.5425H6.49918ZM15.1323 25.5425V26.4426H16.1868V29.8728H17.2416V26.467H18.0999L18.3942 25.5425H15.1323ZM9.95749 26.0533C9.95749 25.7713 10.1877 25.5425 10.4721 25.5425C10.7568 25.5425 10.9873 25.7713 10.9873 26.0533C10.9873 26.3354 10.7569 26.5642 10.4721 26.5642C10.1877 26.5641 9.95749 26.3354 9.95749 26.0533ZM9.95749 26.9292H10.9873V29.8728H9.95749V26.9292ZM11.4288 25.5425V29.8728H12.459V28.7538L12.7778 28.4616L13.7833 29.8971H14.8869L13.4397 27.8049L14.7396 26.5397H13.4889L12.459 27.5614V25.5425H11.4288ZM22.5389 25.5425V29.8728H23.5691V28.7538L23.8879 28.4616L24.8936 29.8971H25.9973L24.5501 27.8049L25.85 26.5397H24.5993L23.5691 27.5614V25.5425H22.5389Z" fill="white"/>
<path fill-rule="evenodd" clip-rule="evenodd" d="M20.9497 10.5531C22.3722 11.5694 24.1151 12.1675 25.9973 12.1675V8.54722C25.6411 8.54736 25.2858 8.5102 24.9373 8.43634V11.2861C23.0552 11.2861 21.3126 10.688 19.8896 9.67161V17.0594C19.8896 20.7553 16.8921 23.7511 13.1946 23.7511C11.815 23.7511 10.5327 23.3342 9.46747 22.6193C10.6832 23.8617 12.3787 24.6325 14.2544 24.6325C17.9521 24.6325 20.9498 21.6367 20.9498 17.9408V10.5531H20.9497ZM22.2573 6.90067C21.5303 6.10683 21.053 5.08084 20.9497 3.94657V3.48096H19.9451C20.1979 4.92252 21.0604 6.15415 22.2573 6.90067ZM11.8061 19.7833C11.3999 19.251 11.1804 18.5998 11.1814 17.9302C11.1814 16.2399 12.5525 14.8694 14.244 14.8694C14.5592 14.8692 14.8725 14.9176 15.173 15.0128V11.3117C14.8219 11.2636 14.4676 11.2432 14.1133 11.2507V14.1315C13.8127 14.0362 13.4993 13.9879 13.1839 13.9881C11.4924 13.9881 10.1214 15.3586 10.1214 17.049C10.1214 18.2443 10.8067 19.2792 11.8061 19.7833Z" fill="#C1C9CF"/>
<path fill-rule="evenodd" clip-rule="evenodd" d="M19.8903 9.67161C21.3133 10.688 23.0559 11.2861 24.938 11.2861V8.43634C23.8875 8.21276 22.9574 7.66395 22.2581 6.90067C21.0611 6.15415 20.1987 4.92252 19.9459 3.48096H17.3072V17.9406C17.3013 19.6263 15.9325 20.9912 14.2446 20.9912C13.2499 20.9912 12.3663 20.5174 11.8067 19.7833C10.8073 19.2792 10.1221 18.2443 10.1221 17.049C10.1221 15.3586 11.493 13.9881 13.1846 13.9881C13.5086 13.9881 13.821 14.0385 14.114 14.1315V11.2507C10.4815 11.3257 7.56 14.2923 7.56 17.9408C7.56 19.762 8.28754 21.4131 9.46821 22.6194C10.5335 23.3343 11.8158 23.7512 13.1953 23.7512C16.8928 23.7512 19.8903 20.7553 19.8903 17.0596V9.67161Z" fill="white"/>
<path fill-rule="evenodd" clip-rule="evenodd" d="M24.9371 8.43643V7.66586C23.9897 7.66729 23.061 7.40211 22.2572 6.90063C22.9687 7.67923 23.9056 8.21616 24.9371 8.43643ZM19.9449 3.48105C19.9208 3.34329 19.9023 3.20461 19.8894 3.06535V2.59973H16.2461V17.0595C16.2403 18.7451 14.8717 20.11 13.1836 20.11C12.688 20.11 12.2202 19.9924 11.8058 19.7834C12.3654 20.5175 13.249 20.9913 14.2437 20.9913C15.9314 20.9913 17.3003 19.6264 17.3063 17.9407V3.48105H19.9449ZM14.1132 11.2508V10.4304C13.8088 10.3888 13.5018 10.368 13.1946 10.3682C9.49669 10.3682 6.49918 13.3641 6.49918 17.0595C6.49918 19.3764 7.67725 21.4183 9.46744 22.6194C8.28676 21.4131 7.55922 19.762 7.55922 17.9407C7.55922 14.2924 10.4806 11.3258 14.1132 11.2508Z" fill="#C1C9CF"/>
<path fill-rule="evenodd" clip-rule="evenodd" d="M20.1356 29.8969C21.1244 29.8969 21.9262 29.1017 21.9262 28.121C21.9262 27.1402 21.1244 26.345 20.1356 26.345H20.1112C19.1224 26.345 18.3207 27.1402 18.3207 28.121C18.3207 29.1017 19.1224 29.8969 20.1112 29.8969H20.1356ZM19.2527 28.121C19.2527 27.6439 19.6427 27.2575 20.1237 27.2575C20.6042 27.2575 20.9942 27.6439 20.9942 28.121C20.9942 28.598 20.6042 28.9848 20.1237 28.9848C19.6427 28.9846 19.2527 28.598 19.2527 28.121Z" fill="white"/>
</svg>
